<svg width="28" height="28" viewBox="0 0 28 28" fill="none" xmlns="http://www.w3.org/2000/svg">
<path d="M24.536 5.78856L16.3423 13.9823L24.5385 22.1786C24.838 22.4886 25.0037 22.9039 24.9999 23.335C24.9962 23.766 24.8233 24.1783 24.5185 24.4831C24.2137 24.7879 23.8014 24.9608 23.3703 24.9646C22.9393 24.9683 22.524 24.8026 22.214 24.5031L22.2114 24.5007L14.0177 16.3069L5.82514 24.4995C5.67375 24.6558 5.49281 24.7806 5.29281 24.8665C5.09224 24.9527 4.87652 24.998 4.65824 24.9999C4.43996 25.0018 4.22348 24.9602 4.02144 24.8776C3.81941 24.7949 3.63586 24.6728 3.4815 24.5185C3.32715 24.3641 3.20508 24.1806 3.12242 23.9786C3.03976 23.7765 2.99817 23.56 3.00006 23.3418C3.00196 23.1235 3.04731 22.9078 3.13347 22.7072C3.21938 22.5072 3.34415 22.3262 3.50054 22.1749L11.6931 13.9823L3.49683 5.78605C3.19737 5.476 3.03169 5.06071 3.03544 4.62967C3.03918 4.19863 3.21208 3.78631 3.51688 3.4815C3.82168 3.1767 4.234 3.00381 4.66504 3.00006C5.09608 2.99632 5.51135 3.16202 5.8214 3.46148L5.82396 3.46395L14.0177 11.6577L22.2139 3.46146C22.524 3.162 22.9393 2.99632 23.3703 3.00006C23.8014 3.00381 24.2137 3.1767 24.5185 3.4815C24.8233 3.78631 24.9962 4.19863 24.9999 4.62967C25.0037 5.06071 24.838 5.47598 24.5385 5.78603L24.536 5.78856Z" fill="white" fill-opacity="0.45"/>
</svg>
