<svg width="346" height="346" viewBox="0 0 346 346" fill="none" xmlns="http://www.w3.org/2000/svg">
<path d="M2 311H1V312V324C1 335.598 10.402 345 22 345H34H35V344V340V339H34H22C13.7157 339 7 332.284 7 324V312V311H6H2Z" fill="white" stroke="white" stroke-width="2"/>
<path d="M344 35H345V34V22C345 10.402 335.598 1 324 1L312 1H311V2V6V7H312H324C332.284 7 339 13.7157 339 22V34V35H340H344Z" fill="white" stroke="white" stroke-width="2"/>
<path d="M311 344V345H312H324C335.598 345 345 335.598 345 324V312V311H344H340H339V312V324C339 332.284 332.284 339 324 339H312H311V340V344Z" fill="white" stroke="white" stroke-width="2"/>
<path d="M35 2V1H34L22 1C10.402 1 1 10.402 1 22V34V35H2H6H7V34L7 22C7 13.7157 13.7157 7 22 7L34 7H35V6V2Z" fill="white" stroke="white" stroke-width="2"/>
</svg>
