<svg width="182" height="182" viewBox="0 0 182 182" fill="none" xmlns="http://www.w3.org/2000/svg">
<path d="M4 159.719H2V161.719V167.825C2 174.549 7.45113 180 14.1754 180H20.2807H22.2807V178V175.965V173.965H20.2807H14.1754C10.7842 173.965 8.03509 171.216 8.03509 167.825V161.719V159.719H6.03509H4Z" fill="white" stroke="white" stroke-width="4"/>
<path d="M178 22.2807H180V20.2807V14.1754C180 7.45112 174.549 2 167.825 2L161.719 2H159.719V4V6.03509V8.03509H161.719H167.825C171.216 8.03509 173.965 10.7842 173.965 14.1754V20.2807V22.2807H175.965H178Z" fill="white" stroke="white" stroke-width="4"/>
<path d="M159.719 178V180H161.719H167.825C174.549 180 180 174.549 180 167.825V161.719V159.719H178H175.965H173.965V161.719V167.825C173.965 171.216 171.216 173.965 167.825 173.965H161.719H159.719V175.965V178Z" fill="white" stroke="white" stroke-width="4"/>
<path d="M22.2807 4V2H20.2807L14.1755 2C7.45115 2 2.00003 7.45113 2.00003 14.1754V20.2807V22.2807H4.00003H6.03512H8.03512V20.2807L8.03512 14.1754C8.03512 10.7842 10.7842 8.03509 14.1755 8.03509H20.2807H22.2807V6.03509V4Z" fill="white" stroke="white" stroke-width="4"/>
</svg>
